<svg width="19" height="20" viewBox="0 0 19 20" fill="none" xmlns="http://www.w3.org/2000/svg">
<path d="M16.6676 0.833008H1.66764C0.74681 0.833008 0.000976562 1.57884 0.000976562 2.49967V17.4997C0.000976562 18.4205 0.74681 19.1663 1.66764 19.1663H10.001V11.6663H7.50098V9.16634H10.001V7.82384C10.001 5.28218 11.2393 4.16634 13.3518 4.16634C14.3635 4.16634 14.8985 4.24134 15.1518 4.27551V6.66634H13.711C12.8143 6.66634 12.501 7.13968 12.501 8.09801V9.16634H15.1293L14.7726 11.6663H12.501V19.1663H16.6676C17.5885 19.1663 18.3343 18.4205 18.3343 17.4997V2.49967C18.3343 1.57884 17.5876 0.833008 16.6676 0.833008Z" fill="#9F9F9F"/>
</svg>
