<svg width="21" height="20" viewBox="0 0 21 20" fill="none" xmlns="http://www.w3.org/2000/svg">
<path d="M6.16471 0C2.94888 0 0.333008 2.61829 0.333008 5.83496V14.1683C0.333008 17.3841 2.9513 20 6.16797 20H14.5013C17.7171 20 20.333 17.3817 20.333 14.165V5.83171C20.333 2.61587 17.7147 0 14.498 0H6.16471ZM16.1663 3.33333C16.6263 3.33333 16.9997 3.70667 16.9997 4.16667C16.9997 4.62667 16.6263 5 16.1663 5C15.7063 5 15.333 4.62667 15.333 4.16667C15.333 3.70667 15.7063 3.33333 16.1663 3.33333ZM10.333 5C13.0905 5 15.333 7.2425 15.333 10C15.333 12.7575 13.0905 15 10.333 15C7.57551 15 5.33301 12.7575 5.33301 10C5.33301 7.2425 7.57551 5 10.333 5ZM10.333 6.66667C9.44895 6.66667 8.60111 7.01786 7.97599 7.64298C7.35086 8.2681 6.99967 9.11594 6.99967 10C6.99967 10.8841 7.35086 11.7319 7.97599 12.357C8.60111 12.9821 9.44895 13.3333 10.333 13.3333C11.2171 13.3333 12.0649 12.9821 12.69 12.357C13.3152 11.7319 13.6663 10.8841 13.6663 10C13.6663 9.11594 13.3152 8.2681 12.69 7.64298C12.0649 7.01786 11.2171 6.66667 10.333 6.66667Z" fill="#9F9F9F"/>
</svg>
