<svg width="19" height="20" viewBox="0 0 19 20" fill="none" xmlns="http://www.w3.org/2000/svg">
<path d="M16.6667 0.833008H1.66667C0.745833 0.833008 0 1.57884 0 2.49967V17.4997C0 18.4205 0.745833 19.1663 1.66667 19.1663H16.6667C17.5875 19.1663 18.3333 18.4205 18.3333 17.4997V2.49967C18.3333 1.57884 17.5875 0.833008 16.6667 0.833008ZM5.795 15.833H3.33667V7.92301H5.795V15.833ZM4.54083 6.79218C3.74833 6.79218 3.1075 6.14967 3.1075 5.35884C3.1075 4.56801 3.74917 3.92634 4.54083 3.92634C5.33083 3.92634 5.97333 4.56884 5.97333 5.35884C5.97333 6.14967 5.33083 6.79218 4.54083 6.79218ZM15.0033 15.833H12.5467V11.9863C12.5467 11.0688 12.53 9.88884 11.2692 9.88884C9.99 9.88884 9.79333 10.888 9.79333 11.9197V15.833H7.33667V7.92301H9.695V9.00384H9.72833C10.0567 8.38218 10.8583 7.72634 12.0542 7.72634C14.5433 7.72634 15.0033 9.36468 15.0033 11.4947V15.833Z" fill="#9F9F9F"/>
</svg>
