<svg width="22" height="19" viewBox="0 0 22 19" fill="none" xmlns="http://www.w3.org/2000/svg">
<path d="M21.9995 2.91717C21.202 3.27134 20.3454 3.50967 19.4462 3.61717C20.3645 3.06717 21.0687 2.19634 21.4004 1.15801C20.542 1.66717 19.5904 2.03717 18.577 2.23717C17.7662 1.37301 16.6112 0.833008 15.3329 0.833008C12.8779 0.833008 10.8879 2.82384 10.8879 5.27801C10.8879 5.62634 10.9279 5.96634 11.0029 6.29051C7.3087 6.10551 4.0337 4.33551 1.84036 1.64551C1.4587 2.30217 1.23953 3.06551 1.23953 3.88134C1.23953 5.42301 2.0237 6.78384 3.2162 7.58051C2.48786 7.55717 1.80203 7.35717 1.20286 7.02467C1.20286 7.04384 1.20286 7.06134 1.20286 7.08051C1.20286 9.23467 2.73453 11.0313 4.7687 11.4388C4.3962 11.5405 4.00286 11.5947 3.59703 11.5947C3.3112 11.5947 3.03203 11.5663 2.7612 11.5155C3.32703 13.2813 4.9687 14.5672 6.9137 14.603C5.39286 15.7955 3.4762 16.5063 1.39286 16.5063C1.03453 16.5063 0.680365 16.4855 0.332031 16.4438C2.29953 17.7047 4.63536 18.4405 7.1462 18.4405C15.3229 18.4405 19.7929 11.6672 19.7929 5.79301C19.7929 5.60051 19.7887 5.40884 19.7804 5.21801C20.6495 4.59051 21.4037 3.80801 21.9995 2.91717Z" fill="#9F9F9F"/>
</svg>
