<svg width="22" height="20" viewBox="0 0 22 20" fill="none" xmlns="http://www.w3.org/2000/svg">
<path d="M11.1663 0.833008C7.67801 0.833008 3.15039 1.70703 3.15039 1.70703L3.139 1.72005C1.55023 1.97414 0.333008 3.33936 0.333008 4.99967V9.99967V10.0013V14.9997V15.0013C0.334558 15.7942 0.618733 16.5607 1.13451 17.163C1.65028 17.7652 2.36387 18.1639 3.14714 18.2874L3.15039 18.2923C3.15039 18.2923 7.67801 19.168 11.1663 19.168C14.6547 19.168 19.1823 18.2923 19.1823 18.2923L19.1839 18.2907C19.968 18.1674 20.6824 17.7684 21.1986 17.1654C21.7148 16.5624 21.9988 15.795 21.9997 15.0013V14.9997V10.0013V9.99967V4.99967C21.9985 4.20645 21.7145 3.43964 21.1987 2.83701C20.6829 2.23439 19.9691 1.83547 19.1855 1.71191L19.1823 1.70703C19.1823 1.70703 14.6547 0.833008 11.1663 0.833008ZM8.66634 6.16504L15.333 9.99967L8.66634 13.8343V6.16504Z" fill="#9F9F9F"/>
</svg>
