<svg width="8" height="14" viewBox="0 0 8 14" fill="none" xmlns="http://www.w3.org/2000/svg">
<path d="M1.59971 9.12L6.18971 13.71C6.37707 13.8963 6.63052 14.0008 6.89471 14.0008C7.1589 14.0008 7.41235 13.8963 7.59971 13.71C7.69344 13.617 7.76783 13.5064 7.8186 13.3846C7.86937 13.2627 7.89551 13.132 7.89551 13C7.89551 12.868 7.86937 12.7373 7.8186 12.6154C7.76783 12.4936 7.69344 12.383 7.59971 12.29L2.99971 7.71C2.90598 7.61704 2.83159 7.50644 2.78082 7.38458C2.73005 7.26272 2.70391 7.13201 2.70391 7C2.70391 6.86799 2.73005 6.73728 2.78082 6.61542C2.83159 6.49356 2.90598 6.38296 2.99971 6.29L7.59971 1.71C7.78801 1.52302 7.89433 1.2689 7.89526 1.00354C7.8962 0.738172 7.79169 0.483303 7.60471 0.294999C7.41773 0.106696 7.16361 0.000379626 6.89824 -0.000557812C6.63288 -0.00149525 6.37801 0.103023 6.18971 0.29L1.59971 4.88C1.03791 5.4425 0.722347 6.205 0.722347 7C0.722347 7.795 1.03791 8.5575 1.59971 9.12Z" fill="white"/>
</svg>
