<svg width="8" height="14" viewBox="0 0 8 14" fill="none" xmlns="http://www.w3.org/2000/svg">
<path d="M6.40127 4.88L1.81127 0.289999C1.62391 0.103748 1.37045 -0.000793457 1.10627 -0.000793457C0.842081 -0.000793457 0.58863 0.103748 0.401267 0.289999C0.307539 0.382962 0.233145 0.493563 0.182376 0.615422C0.131607 0.737282 0.105469 0.867987 0.105469 0.999999C0.105469 1.13201 0.131607 1.26272 0.182376 1.38458C0.233145 1.50644 0.307539 1.61704 0.401267 1.71L5.00127 6.29C5.095 6.38296 5.16939 6.49356 5.22016 6.61542C5.27093 6.73728 5.29707 6.86799 5.29707 7C5.29707 7.13201 5.27093 7.26272 5.22016 7.38458C5.16939 7.50644 5.095 7.61704 5.00127 7.71L0.401267 12.29C0.212963 12.477 0.106649 12.7311 0.105711 12.9965C0.104773 13.2618 0.20929 13.5167 0.396268 13.705C0.583246 13.8933 0.837368 13.9996 1.10273 14.0006C1.3681 14.0015 1.62296 13.897 1.81127 13.71L6.40127 9.12C6.96307 8.5575 7.27863 7.795 7.27863 7C7.27863 6.205 6.96307 5.4425 6.40127 4.88Z" fill="white"/>
</svg>
