<svg width="82" height="35" viewBox="0 0 82 35" fill="none" xmlns="http://www.w3.org/2000/svg">
<path d="M1.36963 27.3524V7.75235H5.40163L11.6176 20.0724L11.8416 20.5484H11.8696L11.7296 18.8964V7.75235H15.7896V27.3524H11.7576L5.54163 15.0604L5.28963 14.5844H5.26163L5.40163 16.2364V27.3524H1.36963ZM17.3931 27.3524V7.75235H21.4251V27.3524H17.3931ZM30.3905 27.6324C26.3025 27.6604 22.9985 25.4484 22.9985 20.6884V7.75235H27.0585V19.5404C27.0585 21.9764 28.0945 23.7404 30.3905 23.7404C32.6865 23.7404 33.7505 21.9764 33.7505 19.5404V7.75235H37.8105V20.6884C37.8105 25.4484 34.5065 27.6044 30.3905 27.6324ZM39.3774 27.3524V7.75235H49.6814V11.1964H43.4934V15.5364H49.6814V18.7004H43.4934V23.9084H49.6814V27.3524H39.3774ZM50.9985 27.3524V7.75235H61.3025V11.1964H55.1145V15.5364H61.3025V18.7004H55.1145V23.9084H61.3025V27.3524H50.9985Z" fill="#222222"/>
<circle cx="70.0776" cy="11.5214" r="4.22028" fill="#222222"/>
<circle cx="77.3633" cy="11.5214" r="4.22028" fill="#222222"/>
<circle cx="70.0776" cy="22.962" r="4.22028" fill="#222222"/>
<circle cx="77.3633" cy="22.962" r="4.22028" fill="#222222"/>
</svg>
