<svg width="36" height="45" viewBox="0 0 36 45" fill="none" xmlns="http://www.w3.org/2000/svg">
<path d="M16.9189 0.921228C17.5775 0.498099 18.4225 0.4981 19.0811 0.921229L34.4016 10.7642C34.9743 11.1321 35.3205 11.7661 35.3205 12.4468V32.5181C35.3205 33.1989 34.9743 33.8328 34.4016 34.2008L19.0811 44.0438C18.4225 44.4669 17.5775 44.4669 16.9189 44.0438L1.59844 34.2008C1.02573 33.8328 0.679491 33.1989 0.679491 32.5181V12.4468C0.679491 11.7661 1.02573 11.1321 1.59844 10.7642L16.9189 0.921228Z" fill="url(#paint0_linear_0_1)"/>
<path d="M32.3386 22.4825C32.3386 31.3775 25.87 38.4949 17.9998 38.4949C10.1297 38.4949 3.66113 31.3775 3.66113 22.4825C3.66113 13.5875 10.1297 6.47015 17.9998 6.47015C25.87 6.47015 32.3386 13.5875 32.3386 22.4825Z" stroke="white"/>
<defs>
<linearGradient id="paint0_linear_0_1" x1="8.55556" y1="7.02707" x2="20.0532" y2="44.1016" gradientUnits="userSpaceOnUse">
<stop stop-color="#4897F4"/>
<stop offset="1" stop-color="#0B6FE4"/>
</linearGradient>
</defs>
</svg>
